<?xml version="1.0" encoding="UTF-8" standalone="no"?>
<svg
   xmlns:dc="http://purl.org/dc/elements/1.1/"
   xmlns:cc="http://creativecommons.org/ns#"
   xmlns:rdf="http://www.w3.org/1999/02/22-rdf-syntax-ns#"
   xmlns:svg="http://www.w3.org/2000/svg"
   xmlns="http://www.w3.org/2000/svg"
   xmlns:sodipodi="http://sodipodi.sourceforge.net/DTD/sodipodi-0.dtd"
   xmlns:inkscape="http://www.inkscape.org/namespaces/inkscape"
   sodipodi:docname="check-circle-regular.svg"
   inkscape:version="1.0 (4035a4fb49, 2020-05-01)"
   id="svg8"
   version="1.1"
   viewBox="0 0 210 297"
   height="297mm"
   width="210mm">
  <defs
     id="defs2" />
  <sodipodi:namedview
     inkscape:window-maximized="0"
     inkscape:window-y="0"
     inkscape:window-x="71"
     inkscape:window-height="860"
     inkscape:window-width="1513"
     showgrid="false"
     inkscape:document-rotation="0"
     inkscape:current-layer="layer1"
     inkscape:document-units="mm"
     inkscape:cy="560"
     inkscape:cx="400"
     inkscape:zoom="0.35"
     inkscape:pageshadow="2"
     inkscape:pageopacity="0.0"
     borderopacity="1.0"
     bordercolor="#666666"
     pagecolor="#ffffff"
     id="base" />
  <metadata
     id="metadata5">
    <rdf:RDF>
      <cc:Work
         rdf:about="">
        <dc:format>image/svg+xml</dc:format>
        <dc:type
           rdf:resource="http://purl.org/dc/dcmitype/StillImage" />
        <dc:title></dc:title>
      </cc:Work>
    </rdf:RDF>
  </metadata>
  <g
     id="layer1"
     inkscape:groupmode="layer"
     inkscape:label="Слой 1">
    <path
       style="stroke-width:0.264583;fill:#2ca05a"
       fill="currentColor"
       d="m 103.56547,36.436905 c -36.239179,0 -65.61666,29.377481 -65.61666,65.616665 0,36.23919 29.377481,65.61667 65.61666,65.61667 36.23919,0 65.61667,-29.37748 65.61667,-65.61667 0,-36.239184 -29.37748,-65.616665 -65.61667,-65.616665 z m 0,12.700001 c 29.24493,0 52.91667,23.66724 52.91667,52.916664 0,29.24493 -23.66724,52.91667 -52.91667,52.91667 -29.244919,0 -52.91666,-23.66724 -52.91666,-52.91667 0,-29.244924 23.667241,-52.916664 52.91666,-52.916664 m 37.09564,34.46648 -5.96264,-6.01081 c -1.23481,-1.24486 -3.24512,-1.25307 -4.48998,-0.018 L 92.809101,114.6734 76.989141,98.725106 c -1.23481,-1.24487 -3.24512,-1.25307 -4.48998,-0.0183 l -6.01107,5.962654 c -1.24487,1.23481 -1.25307,3.24511 -0.018,4.49024 l 24.01914,24.21361 c 1.23481,1.24487 3.24511,1.25307 4.48998,0.018 L 140.64338,88.093586 c 1.2446,-1.23508 1.25254,-3.24538 0.0177,-4.49024 z"
       id="path10" />
  </g>
</svg>
