<?xml version="1.0" standalone="no"?>
<!DOCTYPE svg PUBLIC "-//W3C//DTD SVG 20010904//EN"
 "http://www.w3.org/TR/2001/REC-SVG-20010904/DTD/svg10.dtd">
<svg version="1.0" xmlns="http://www.w3.org/2000/svg"
 width="627.000000pt" height="627.000000pt" viewBox="0 0 627.000000 627.000000"
 preserveAspectRatio="xMidYMid meet">
<metadata>
Created by potrace 1.11, written by Peter Selinger 2001-2013
</metadata>
<g transform="translate(0.000000,627.000000) scale(0.100000,-0.100000)"
fill="#000000" stroke="none">
<path d="M1330 5613 c-222 -37 -371 -256 -330 -485 19 -104 71 -198 158 -287
42 -43 106 -102 142 -132 36 -30 67 -56 70 -59 3 -3 39 -33 81 -67 361 -293
602 -686 562 -919 -6 -35 -21 -85 -34 -111 -32 -67 -120 -150 -198 -187 -57
-27 -77 -31 -146 -31 -69 0 -87 4 -131 28 -61 34 -130 97 -215 197 -85 99 -81
95 -124 124 -41 28 -92 34 -128 14 -103 -55 -35 -167 220 -364 289 -222 365
-302 434 -448 57 -122 71 -247 43 -384 -31 -155 -126 -297 -246 -369 -70 -43
-158 -64 -478 -119 -483 -81 -622 -127 -732 -241 -233 -243 -170 -719 122
-918 115 -79 241 -107 380 -86 144 22 252 92 315 205 42 75 52 104 116 321 28
94 68 206 89 250 62 128 189 312 278 400 186 186 428 272 578 205 89 -39 135
-95 234 -285 100 -192 160 -270 227 -296 88 -33 187 28 246 152 125 266 140
293 185 338 78 78 178 99 307 66 178 -46 262 -152 289 -365 3 -25 8 -117 11
-205 13 -330 54 -446 185 -523 40 -24 55 -27 135 -27 79 0 97 4 143 28 61 32
105 75 135 132 17 31 22 58 21 115 0 135 -56 236 -240 428 -240 251 -305 364
-259 451 23 45 76 66 215 87 255 37 520 -11 682 -124 129 -91 165 -150 297
-477 125 -310 198 -415 331 -479 60 -29 73 -31 170 -30 90 0 119 5 201 32 296
98 406 304 309 580 -63 178 -245 374 -425 457 -230 106 -421 143 -775 151
-393 9 -522 30 -595 99 -69 66 -57 102 65 195 130 99 218 209 221 277 3 53 -1
60 -83 116 -149 101 -192 152 -192 228 0 114 126 213 324 254 147 31 243 37
680 42 493 5 526 8 665 62 191 74 285 204 254 352 -28 131 -123 255 -235 305
-175 77 -425 46 -634 -78 -47 -28 -215 -137 -375 -243 -552 -365 -673 -423
-812 -394 -99 20 -142 77 -200 264 -20 65 -37 101 -62 129 l-35 38 -71 -4
c-45 -4 -116 -20 -200 -48 -144 -48 -226 -56 -281 -27 -52 27 -105 95 -151
196 -86 185 -95 202 -121 233 -44 52 -77 67 -124 57 -97 -22 -155 -65 -195
-142 -14 -28 -42 -119 -63 -202 -78 -312 -171 -413 -322 -350 -72 29 -132 218
-158 490 -17 183 -47 385 -76 514 -51 228 -151 495 -237 634 -54 87 -154 185
-223 220 -44 22 -149 49 -178 46 -6 -1 -22 -4 -36 -6z"/>
<path d="M2537 5389 c-87 -21 -165 -89 -191 -166 -55 -160 43 -375 202 -445
65 -29 165 -22 221 15 86 57 133 177 114 293 -33 195 -198 339 -346 303z"/>
<path d="M4125 5123 c-206 -74 -306 -241 -329 -545 -6 -81 9 -182 33 -223 23
-40 77 -75 115 -75 54 0 153 55 221 123 150 150 241 363 230 536 -4 74 -28
124 -78 165 -47 38 -119 45 -192 19z"/>
<path d="M2683 1266 c-43 -36 -73 -112 -80 -204 -15 -204 68 -381 193 -411 70
-16 158 7 196 52 86 102 82 296 -10 429 -66 96 -136 147 -214 155 -48 5 -57 2
-85 -21z"/>
</g>
</svg>
